<svg width="7" height="12" viewBox="0 0 7 12" fill="none" xmlns="http://www.w3.org/2000/svg">
<path d="M2.60762 11.0465L6.55327 7.07613C6.69487 6.93428 6.80722 6.76571 6.88388 6.58012C6.96054 6.39452 7 6.19553 7 5.99457C7 5.79361 6.96054 5.59463 6.88388 5.40903C6.80722 5.22343 6.69487 5.05487 6.55327 4.91301L2.6037 0.942687C2.38919 0.730097 2.11701 0.585905 1.8213 0.528191C1.52559 0.470476 1.21952 0.501807 0.941452 0.618259C0.663386 0.734711 0.425711 0.931099 0.25823 1.18279C0.0907491 1.43449 0.000917634 1.73029 -4.13811e-07 2.0331L-6.67149e-08 9.97374C0.00130082 10.2769 0.0919955 10.5729 0.260616 10.8242C0.429236 11.0755 0.668209 11.271 0.947318 11.3858C1.22643 11.5006 1.53314 11.5297 1.82867 11.4693C2.1242 11.4089 2.39527 11.2617 2.60762 11.0465Z" fill="#323338"/>
</svg>
